<mxfile host="Electron" modified="2024-04-22T11:12:03.893Z" agent="Mozilla/5.0 (Windows NT 10.0; Win64; x64) AppleWebKit/537.36 (KHTML, like Gecko) draw.io/24.2.5 Chrome/120.0.6099.109 Electron/28.1.0 Safari/537.36" etag="6pNsUPqJzZ3U5YwXq8PK" version="24.2.5" type="device">
  <diagram name="Σελίδα-1" id="c0uzWA4KZ7GL6QyTbvXv">
    <mxGraphModel dx="802" dy="955" grid="1" gridSize="10" guides="1" tooltips="1" connect="1" arrows="1" fold="1" page="1" pageScale="1" pageWidth="827" pageHeight="1169" math="0" shadow="0">
      <root>
        <mxCell id="0" />
        <mxCell id="1" parent="0" />
        <mxCell id="ossWkHLXNniP_KbDqP73-1" value="Χρήστης" style="shape=umlActor;verticalLabelPosition=bottom;verticalAlign=top;html=1;" parent="1" vertex="1">
          <mxGeometry x="30" y="280" width="30" height="60" as="geometry" />
        </mxCell>
        <mxCell id="ossWkHLXNniP_KbDqP73-4" value="Αρχική Σελίδα&lt;br&gt;Χρήστη" style="shape=umlBoundary;whiteSpace=wrap;html=1;" parent="1" vertex="1">
          <mxGeometry x="160" y="40" width="100" height="80" as="geometry" />
        </mxCell>
        <mxCell id="ossWkHLXNniP_KbDqP73-6" value="Εμφανίζει" style="ellipse;shape=umlControl;whiteSpace=wrap;html=1;" parent="1" vertex="1">
          <mxGeometry x="520" y="40" width="70" height="80" as="geometry" />
        </mxCell>
        <mxCell id="ossWkHLXNniP_KbDqP73-8" value="Σελίδα Περιγραφής Outfit" style="shape=umlBoundary;whiteSpace=wrap;html=1;" parent="1" vertex="1">
          <mxGeometry x="335" y="140" width="100" height="80" as="geometry" />
        </mxCell>
        <mxCell id="6vYfxs9B-7xquveqUcep-1" value="Παίρνει Πληροφορίες" style="ellipse;shape=umlControl;whiteSpace=wrap;html=1;" vertex="1" parent="1">
          <mxGeometry x="350" y="40" width="70" height="80" as="geometry" />
        </mxCell>
        <mxCell id="6vYfxs9B-7xquveqUcep-4" value="" style="html=1;verticalAlign=bottom;startArrow=oval;startFill=1;endArrow=block;startSize=8;curved=0;rounded=0;exitX=1.009;exitY=0.56;exitDx=0;exitDy=0;exitPerimeter=0;entryX=-0.014;entryY=0.57;entryDx=0;entryDy=0;entryPerimeter=0;" edge="1" parent="1" source="6vYfxs9B-7xquveqUcep-1" target="ossWkHLXNniP_KbDqP73-6">
          <mxGeometry width="60" relative="1" as="geometry">
            <mxPoint x="281" y="92" as="sourcePoint" />
            <mxPoint x="360" y="92" as="targetPoint" />
          </mxGeometry>
        </mxCell>
        <mxCell id="6vYfxs9B-7xquveqUcep-52" value="2." style="edgeLabel;html=1;align=center;verticalAlign=middle;resizable=0;points=[];" vertex="1" connectable="0" parent="6vYfxs9B-7xquveqUcep-4">
          <mxGeometry x="0.0214" y="1" relative="1" as="geometry">
            <mxPoint as="offset" />
          </mxGeometry>
        </mxCell>
        <mxCell id="6vYfxs9B-7xquveqUcep-6" value="Κουμπί Purchase" style="shape=umlBoundary;whiteSpace=wrap;html=1;" vertex="1" parent="1">
          <mxGeometry x="160" y="260" width="100" height="80" as="geometry" />
        </mxCell>
        <mxCell id="6vYfxs9B-7xquveqUcep-9" value="" style="html=1;verticalAlign=bottom;startArrow=oval;startFill=1;endArrow=block;startSize=8;curved=0;rounded=0;exitX=1;exitY=0.563;exitDx=0;exitDy=0;exitPerimeter=0;entryX=0.029;entryY=0.554;entryDx=0;entryDy=0;entryPerimeter=0;" edge="1" parent="1" source="ossWkHLXNniP_KbDqP73-8" target="6vYfxs9B-7xquveqUcep-10">
          <mxGeometry width="60" relative="1" as="geometry">
            <mxPoint x="280" y="190" as="sourcePoint" />
            <mxPoint x="460" y="190" as="targetPoint" />
          </mxGeometry>
        </mxCell>
        <mxCell id="6vYfxs9B-7xquveqUcep-54" value="2." style="edgeLabel;html=1;align=center;verticalAlign=middle;resizable=0;points=[];" vertex="1" connectable="0" parent="6vYfxs9B-7xquveqUcep-9">
          <mxGeometry x="-0.3111" y="2" relative="1" as="geometry">
            <mxPoint as="offset" />
          </mxGeometry>
        </mxCell>
        <mxCell id="6vYfxs9B-7xquveqUcep-10" value="Φόρτωσε" style="ellipse;shape=umlControl;whiteSpace=wrap;html=1;" vertex="1" parent="1">
          <mxGeometry x="520" y="140" width="70" height="80" as="geometry" />
        </mxCell>
        <mxCell id="6vYfxs9B-7xquveqUcep-11" value="" style="html=1;verticalAlign=bottom;startArrow=oval;startFill=1;endArrow=block;startSize=8;curved=0;rounded=0;exitX=0.019;exitY=0.793;exitDx=0;exitDy=0;exitPerimeter=0;entryX=0.94;entryY=0.233;entryDx=0;entryDy=0;entryPerimeter=0;" edge="1" parent="1" source="6vYfxs9B-7xquveqUcep-10" target="6vYfxs9B-7xquveqUcep-6">
          <mxGeometry width="60" relative="1" as="geometry">
            <mxPoint x="320" y="280" as="sourcePoint" />
            <mxPoint x="380" y="280" as="targetPoint" />
          </mxGeometry>
        </mxCell>
        <mxCell id="6vYfxs9B-7xquveqUcep-55" value="2." style="edgeLabel;html=1;align=center;verticalAlign=middle;resizable=0;points=[];" vertex="1" connectable="0" parent="6vYfxs9B-7xquveqUcep-11">
          <mxGeometry x="0.3426" relative="1" as="geometry">
            <mxPoint as="offset" />
          </mxGeometry>
        </mxCell>
        <mxCell id="6vYfxs9B-7xquveqUcep-12" value="3.Επιλογή" style="html=1;verticalAlign=bottom;startArrow=oval;startFill=1;endArrow=block;startSize=8;curved=0;rounded=0;exitX=1;exitY=0.3333333333333333;exitDx=0;exitDy=0;exitPerimeter=0;entryX=0.02;entryY=0.5;entryDx=0;entryDy=0;entryPerimeter=0;" edge="1" parent="1" source="ossWkHLXNniP_KbDqP73-1" target="6vYfxs9B-7xquveqUcep-6">
          <mxGeometry width="60" relative="1" as="geometry">
            <mxPoint x="80" y="320" as="sourcePoint" />
            <mxPoint x="140" y="320" as="targetPoint" />
          </mxGeometry>
        </mxCell>
        <mxCell id="6vYfxs9B-7xquveqUcep-13" value="" style="html=1;verticalAlign=bottom;startArrow=oval;startFill=1;endArrow=block;startSize=8;curved=0;rounded=0;exitX=1.029;exitY=0.5;exitDx=0;exitDy=0;exitPerimeter=0;entryX=-0.029;entryY=0.498;entryDx=0;entryDy=0;entryPerimeter=0;" edge="1" parent="1" source="6vYfxs9B-7xquveqUcep-6" target="6vYfxs9B-7xquveqUcep-61">
          <mxGeometry width="60" relative="1" as="geometry">
            <mxPoint x="280" y="300" as="sourcePoint" />
            <mxPoint x="320" y="300" as="targetPoint" />
          </mxGeometry>
        </mxCell>
        <mxCell id="6vYfxs9B-7xquveqUcep-56" value="4." style="edgeLabel;html=1;align=center;verticalAlign=middle;resizable=0;points=[];" vertex="1" connectable="0" parent="6vYfxs9B-7xquveqUcep-13">
          <mxGeometry x="-0.0856" y="-2" relative="1" as="geometry">
            <mxPoint as="offset" />
          </mxGeometry>
        </mxCell>
        <mxCell id="6vYfxs9B-7xquveqUcep-14" value="Έλεγχος Μεγέθους" style="ellipse;shape=umlControl;whiteSpace=wrap;html=1;" vertex="1" parent="1">
          <mxGeometry x="430" y="260" width="70" height="80" as="geometry" />
        </mxCell>
        <mxCell id="6vYfxs9B-7xquveqUcep-15" value="" style="html=1;verticalAlign=bottom;startArrow=oval;startFill=1;endArrow=block;startSize=8;curved=0;rounded=0;exitX=0.027;exitY=0.762;exitDx=0;exitDy=0;exitPerimeter=0;entryX=0.927;entryY=0.225;entryDx=0;entryDy=0;entryPerimeter=0;" edge="1" parent="1" source="ossWkHLXNniP_KbDqP73-6" target="ossWkHLXNniP_KbDqP73-8">
          <mxGeometry width="60" relative="1" as="geometry">
            <mxPoint x="280" y="200" as="sourcePoint" />
            <mxPoint x="482" y="199" as="targetPoint" />
          </mxGeometry>
        </mxCell>
        <mxCell id="6vYfxs9B-7xquveqUcep-53" value="2." style="edgeLabel;html=1;align=center;verticalAlign=middle;resizable=0;points=[];" vertex="1" connectable="0" parent="6vYfxs9B-7xquveqUcep-15">
          <mxGeometry x="0.1374" y="-1" relative="1" as="geometry">
            <mxPoint as="offset" />
          </mxGeometry>
        </mxCell>
        <mxCell id="6vYfxs9B-7xquveqUcep-16" value="" style="html=1;verticalAlign=bottom;startArrow=oval;startFill=1;endArrow=block;startSize=8;curved=0;rounded=0;entryX=-0.001;entryY=0.5;entryDx=0;entryDy=0;entryPerimeter=0;exitX=1.014;exitY=0.508;exitDx=0;exitDy=0;exitPerimeter=0;strokeColor=default;" edge="1" parent="1" source="6vYfxs9B-7xquveqUcep-14" target="6vYfxs9B-7xquveqUcep-17">
          <mxGeometry width="60" relative="1" as="geometry">
            <mxPoint x="440" y="300" as="sourcePoint" />
            <mxPoint x="500" y="300" as="targetPoint" />
          </mxGeometry>
        </mxCell>
        <mxCell id="6vYfxs9B-7xquveqUcep-57" value="4." style="edgeLabel;html=1;align=center;verticalAlign=middle;resizable=0;points=[];" vertex="1" connectable="0" parent="6vYfxs9B-7xquveqUcep-16">
          <mxGeometry x="-0.1599" y="-1" relative="1" as="geometry">
            <mxPoint as="offset" />
          </mxGeometry>
        </mxCell>
        <mxCell id="6vYfxs9B-7xquveqUcep-17" value="Έλεγχος Διαθ/τας στο Μεγεθος" style="ellipse;shape=umlControl;whiteSpace=wrap;html=1;" vertex="1" parent="1">
          <mxGeometry x="540" y="260" width="70" height="80" as="geometry" />
        </mxCell>
        <mxCell id="6vYfxs9B-7xquveqUcep-19" value="" style="html=1;verticalAlign=bottom;startArrow=oval;startFill=1;endArrow=block;startSize=8;curved=0;rounded=0;exitX=0.759;exitY=0.002;exitDx=0;exitDy=0;exitPerimeter=0;entryX=-0.014;entryY=0.602;entryDx=0;entryDy=0;entryPerimeter=0;" edge="1" parent="1" source="ossWkHLXNniP_KbDqP73-1" target="ossWkHLXNniP_KbDqP73-4">
          <mxGeometry width="60" relative="1" as="geometry">
            <mxPoint x="50" y="250" as="sourcePoint" />
            <mxPoint x="130" y="250" as="targetPoint" />
          </mxGeometry>
        </mxCell>
        <mxCell id="6vYfxs9B-7xquveqUcep-31" value="1.Επιλογή&lt;br&gt;Συνόλου" style="edgeLabel;html=1;align=center;verticalAlign=middle;resizable=0;points=[];" vertex="1" connectable="0" parent="6vYfxs9B-7xquveqUcep-19">
          <mxGeometry x="0.0934" relative="1" as="geometry">
            <mxPoint as="offset" />
          </mxGeometry>
        </mxCell>
        <mxCell id="6vYfxs9B-7xquveqUcep-20" value="Κατάστημα" style="ellipse;shape=umlEntity;whiteSpace=wrap;html=1;" vertex="1" parent="1">
          <mxGeometry x="660" y="260" width="80" height="80" as="geometry" />
        </mxCell>
        <mxCell id="6vYfxs9B-7xquveqUcep-21" value="" style="html=1;verticalAlign=bottom;startArrow=oval;startFill=1;endArrow=block;startSize=8;curved=0;rounded=0;exitX=1.034;exitY=0.646;exitDx=0;exitDy=0;exitPerimeter=0;" edge="1" parent="1" source="6vYfxs9B-7xquveqUcep-17">
          <mxGeometry width="60" relative="1" as="geometry">
            <mxPoint x="600" y="310" as="sourcePoint" />
            <mxPoint x="660" y="312" as="targetPoint" />
          </mxGeometry>
        </mxCell>
        <mxCell id="6vYfxs9B-7xquveqUcep-59" value="4." style="edgeLabel;html=1;align=center;verticalAlign=middle;resizable=0;points=[];" vertex="1" connectable="0" parent="6vYfxs9B-7xquveqUcep-21">
          <mxGeometry x="-0.4921" y="1" relative="1" as="geometry">
            <mxPoint x="11" y="-1" as="offset" />
          </mxGeometry>
        </mxCell>
        <mxCell id="6vYfxs9B-7xquveqUcep-22" value="Σελίδα Πληρωμών Καταστήματος" style="shape=umlBoundary;whiteSpace=wrap;html=1;" vertex="1" parent="1">
          <mxGeometry x="640" y="370" width="100" height="80" as="geometry" />
        </mxCell>
        <mxCell id="6vYfxs9B-7xquveqUcep-23" value="" style="html=1;verticalAlign=bottom;startArrow=oval;startFill=1;endArrow=block;startSize=8;curved=0;rounded=0;exitX=0.89;exitY=0.893;exitDx=0;exitDy=0;exitPerimeter=0;entryX=0.251;entryY=0.195;entryDx=0;entryDy=0;entryPerimeter=0;" edge="1" parent="1" source="6vYfxs9B-7xquveqUcep-17" target="6vYfxs9B-7xquveqUcep-22">
          <mxGeometry width="60" relative="1" as="geometry">
            <mxPoint x="552" y="342" as="sourcePoint" />
            <mxPoint x="660" y="376" as="targetPoint" />
          </mxGeometry>
        </mxCell>
        <mxCell id="6vYfxs9B-7xquveqUcep-58" value="4." style="edgeLabel;html=1;align=center;verticalAlign=middle;resizable=0;points=[];" vertex="1" connectable="0" parent="6vYfxs9B-7xquveqUcep-23">
          <mxGeometry x="-0.1285" y="3" relative="1" as="geometry">
            <mxPoint as="offset" />
          </mxGeometry>
        </mxCell>
        <mxCell id="6vYfxs9B-7xquveqUcep-25" value="&lt;font style=&quot;font-size: 10px;&quot;&gt;Σελίδα Εμφάνισης Αποτελεσμάτων&lt;/font&gt;" style="shape=umlBoundary;whiteSpace=wrap;html=1;" vertex="1" parent="1">
          <mxGeometry x="160" y="150" width="100" height="80" as="geometry" />
        </mxCell>
        <mxCell id="6vYfxs9B-7xquveqUcep-27" value="" style="html=1;verticalAlign=bottom;startArrow=oval;startFill=1;endArrow=block;startSize=8;curved=0;rounded=0;exitX=0.771;exitY=0.013;exitDx=0;exitDy=0;exitPerimeter=0;entryX=-0.021;entryY=0.548;entryDx=0;entryDy=0;entryPerimeter=0;strokeColor=#FF0000;" edge="1" parent="1" source="ossWkHLXNniP_KbDqP73-1" target="6vYfxs9B-7xquveqUcep-25">
          <mxGeometry width="60" relative="1" as="geometry">
            <mxPoint x="63" y="290" as="sourcePoint" />
            <mxPoint x="179" y="98" as="targetPoint" />
          </mxGeometry>
        </mxCell>
        <mxCell id="6vYfxs9B-7xquveqUcep-30" value="1.α.1Επιλογή&lt;br&gt;Συνόλου" style="edgeLabel;html=1;align=center;verticalAlign=middle;resizable=0;points=[];" vertex="1" connectable="0" parent="6vYfxs9B-7xquveqUcep-27">
          <mxGeometry x="0.2068" y="2" relative="1" as="geometry">
            <mxPoint x="9" y="15" as="offset" />
          </mxGeometry>
        </mxCell>
        <mxCell id="6vYfxs9B-7xquveqUcep-32" value="" style="html=1;verticalAlign=bottom;startArrow=oval;startFill=1;endArrow=block;startSize=8;curved=0;rounded=0;exitX=0.928;exitY=0.197;exitDx=0;exitDy=0;exitPerimeter=0;entryX=0.075;entryY=0.811;entryDx=0;entryDy=0;entryPerimeter=0;strokeColor=#FF0000;" edge="1" parent="1" source="6vYfxs9B-7xquveqUcep-25" target="6vYfxs9B-7xquveqUcep-1">
          <mxGeometry width="60" relative="1" as="geometry">
            <mxPoint x="280" y="140" as="sourcePoint" />
            <mxPoint x="340" y="140" as="targetPoint" />
          </mxGeometry>
        </mxCell>
        <mxCell id="6vYfxs9B-7xquveqUcep-60" value="1.α.2" style="edgeLabel;html=1;align=center;verticalAlign=middle;resizable=0;points=[];" vertex="1" connectable="0" parent="6vYfxs9B-7xquveqUcep-32">
          <mxGeometry x="0.023" y="1" relative="1" as="geometry">
            <mxPoint as="offset" />
          </mxGeometry>
        </mxCell>
        <mxCell id="6vYfxs9B-7xquveqUcep-35" value="Κατάλληλο Μύνημα Σφάλματος" style="shape=umlBoundary;whiteSpace=wrap;html=1;" vertex="1" parent="1">
          <mxGeometry x="727" y="50" width="100" height="80" as="geometry" />
        </mxCell>
        <mxCell id="6vYfxs9B-7xquveqUcep-36" value="Κουμπί &lt;br&gt;&quot;&amp;lt;&quot;" style="shape=umlBoundary;whiteSpace=wrap;html=1;" vertex="1" parent="1">
          <mxGeometry x="160" y="640" width="100" height="80" as="geometry" />
        </mxCell>
        <mxCell id="6vYfxs9B-7xquveqUcep-37" value="3.α.1Επιλογή" style="html=1;verticalAlign=bottom;startArrow=oval;startFill=1;endArrow=block;startSize=8;curved=0;rounded=0;exitX=1;exitY=1;exitDx=0;exitDy=0;exitPerimeter=0;entryX=-0.023;entryY=0.3;entryDx=0;entryDy=0;entryPerimeter=0;strokeColor=#FF0000;" edge="1" parent="1" source="ossWkHLXNniP_KbDqP73-1" target="6vYfxs9B-7xquveqUcep-36">
          <mxGeometry width="60" relative="1" as="geometry">
            <mxPoint x="80" y="420" as="sourcePoint" />
            <mxPoint x="140" y="420" as="targetPoint" />
          </mxGeometry>
        </mxCell>
        <mxCell id="6vYfxs9B-7xquveqUcep-38" value="Εμφανίζει" style="ellipse;shape=umlControl;whiteSpace=wrap;html=1;" vertex="1" parent="1">
          <mxGeometry x="480" y="630" width="70" height="80" as="geometry" />
        </mxCell>
        <mxCell id="6vYfxs9B-7xquveqUcep-39" value="" style="html=1;verticalAlign=bottom;startArrow=oval;startFill=1;endArrow=block;startSize=8;curved=0;rounded=0;entryX=-0.038;entryY=0.625;entryDx=0;entryDy=0;entryPerimeter=0;strokeColor=#FF0000;" edge="1" parent="1" source="6vYfxs9B-7xquveqUcep-36" target="6vYfxs9B-7xquveqUcep-38">
          <mxGeometry width="60" relative="1" as="geometry">
            <mxPoint x="270" y="520" as="sourcePoint" />
            <mxPoint x="330" y="520" as="targetPoint" />
          </mxGeometry>
        </mxCell>
        <mxCell id="6vYfxs9B-7xquveqUcep-86" value="3.α.2" style="edgeLabel;html=1;align=center;verticalAlign=middle;resizable=0;points=[];" vertex="1" connectable="0" parent="6vYfxs9B-7xquveqUcep-39">
          <mxGeometry x="-0.116" y="3" relative="1" as="geometry">
            <mxPoint as="offset" />
          </mxGeometry>
        </mxCell>
        <mxCell id="6vYfxs9B-7xquveqUcep-40" value="Σελίδα Εύρεσης του Συνόλου" style="shape=umlBoundary;whiteSpace=wrap;html=1;" vertex="1" parent="1">
          <mxGeometry x="730" y="640" width="100" height="80" as="geometry" />
        </mxCell>
        <mxCell id="6vYfxs9B-7xquveqUcep-41" value="" style="html=1;verticalAlign=bottom;startArrow=oval;startFill=1;endArrow=block;startSize=8;curved=0;rounded=0;exitX=0.978;exitY=0.658;exitDx=0;exitDy=0;exitPerimeter=0;entryX=-0.012;entryY=0.544;entryDx=0;entryDy=0;entryPerimeter=0;strokeColor=#FF0000;" edge="1" parent="1" source="6vYfxs9B-7xquveqUcep-38" target="6vYfxs9B-7xquveqUcep-40">
          <mxGeometry width="60" relative="1" as="geometry">
            <mxPoint x="440" y="510" as="sourcePoint" />
            <mxPoint x="500" y="510" as="targetPoint" />
          </mxGeometry>
        </mxCell>
        <mxCell id="6vYfxs9B-7xquveqUcep-87" value="3.α.2" style="edgeLabel;html=1;align=center;verticalAlign=middle;resizable=0;points=[];" vertex="1" connectable="0" parent="6vYfxs9B-7xquveqUcep-41">
          <mxGeometry x="-0.2075" y="2" relative="1" as="geometry">
            <mxPoint as="offset" />
          </mxGeometry>
        </mxCell>
        <mxCell id="6vYfxs9B-7xquveqUcep-45" value="Μεταβίβασε" style="ellipse;shape=umlControl;whiteSpace=wrap;html=1;" vertex="1" parent="1">
          <mxGeometry x="309.0000000000002" y="520" width="70" height="80" as="geometry" />
        </mxCell>
        <mxCell id="6vYfxs9B-7xquveqUcep-46" value="Σελίδα Ρυθμίσεων Χρήστη (Μεγέθοι&lt;br&gt;Σώματος)" style="shape=umlBoundary;whiteSpace=wrap;html=1;" vertex="1" parent="1">
          <mxGeometry x="640" y="520" width="100" height="80" as="geometry" />
        </mxCell>
        <mxCell id="6vYfxs9B-7xquveqUcep-50" value="" style="html=1;verticalAlign=bottom;startArrow=oval;startFill=1;endArrow=block;startSize=8;curved=0;rounded=0;exitX=1.006;exitY=0.522;exitDx=0;exitDy=0;exitPerimeter=0;entryX=-0.017;entryY=0.515;entryDx=0;entryDy=0;entryPerimeter=0;" edge="1" parent="1" source="ossWkHLXNniP_KbDqP73-4" target="6vYfxs9B-7xquveqUcep-1">
          <mxGeometry width="60" relative="1" as="geometry">
            <mxPoint x="431" y="95" as="sourcePoint" />
            <mxPoint x="529" y="96" as="targetPoint" />
          </mxGeometry>
        </mxCell>
        <mxCell id="6vYfxs9B-7xquveqUcep-51" value="2." style="edgeLabel;html=1;align=center;verticalAlign=middle;resizable=0;points=[];rotation=0;" vertex="1" connectable="0" parent="6vYfxs9B-7xquveqUcep-50">
          <mxGeometry x="-0.2915" y="1" relative="1" as="geometry">
            <mxPoint x="12" y="-1" as="offset" />
          </mxGeometry>
        </mxCell>
        <mxCell id="6vYfxs9B-7xquveqUcep-61" value="&lt;font style=&quot;font-size: 12px;&quot;&gt;Έλεγχος Διαθ/τας&lt;/font&gt;" style="ellipse;shape=umlControl;whiteSpace=wrap;html=1;" vertex="1" parent="1">
          <mxGeometry x="309" y="260" width="70" height="80" as="geometry" />
        </mxCell>
        <mxCell id="6vYfxs9B-7xquveqUcep-64" value="" style="html=1;verticalAlign=bottom;startArrow=oval;startFill=1;endArrow=block;startSize=8;curved=0;rounded=0;exitX=1.013;exitY=0.572;exitDx=0;exitDy=0;exitPerimeter=0;entryX=-0.025;entryY=0.572;entryDx=0;entryDy=0;entryPerimeter=0;" edge="1" parent="1" source="6vYfxs9B-7xquveqUcep-61" target="6vYfxs9B-7xquveqUcep-14">
          <mxGeometry width="60" relative="1" as="geometry">
            <mxPoint x="390" y="299.63" as="sourcePoint" />
            <mxPoint x="435" y="299.63" as="targetPoint" />
          </mxGeometry>
        </mxCell>
        <mxCell id="6vYfxs9B-7xquveqUcep-65" value="4." style="edgeLabel;html=1;align=center;verticalAlign=middle;resizable=0;points=[];" vertex="1" connectable="0" parent="6vYfxs9B-7xquveqUcep-64">
          <mxGeometry x="-0.0856" y="-2" relative="1" as="geometry">
            <mxPoint as="offset" />
          </mxGeometry>
        </mxCell>
        <mxCell id="6vYfxs9B-7xquveqUcep-66" value="Κατάλληλο Μύνημα Σφάλματος" style="shape=umlBoundary;whiteSpace=wrap;html=1;" vertex="1" parent="1">
          <mxGeometry x="160" y="520" width="100" height="80" as="geometry" />
        </mxCell>
        <mxCell id="6vYfxs9B-7xquveqUcep-67" value="" style="html=1;verticalAlign=bottom;startArrow=oval;startFill=1;endArrow=block;startSize=8;curved=0;rounded=0;exitX=0.014;exitY=0.802;exitDx=0;exitDy=0;exitPerimeter=0;strokeColor=#FF0000;entryX=0.871;entryY=0.253;entryDx=0;entryDy=0;entryPerimeter=0;" edge="1" parent="1" source="6vYfxs9B-7xquveqUcep-61" target="6vYfxs9B-7xquveqUcep-89">
          <mxGeometry width="60" relative="1" as="geometry">
            <mxPoint x="440" y="335" as="sourcePoint" />
            <mxPoint x="250" y="390" as="targetPoint" />
          </mxGeometry>
        </mxCell>
        <mxCell id="6vYfxs9B-7xquveqUcep-69" value="2.α.1" style="edgeLabel;html=1;align=center;verticalAlign=middle;resizable=0;points=[];" vertex="1" connectable="0" parent="6vYfxs9B-7xquveqUcep-67">
          <mxGeometry x="0.2169" y="3" relative="1" as="geometry">
            <mxPoint y="-5" as="offset" />
          </mxGeometry>
        </mxCell>
        <mxCell id="6vYfxs9B-7xquveqUcep-72" value="Εμφάνισε" style="ellipse;shape=umlControl;whiteSpace=wrap;html=1;" vertex="1" parent="1">
          <mxGeometry x="665" y="160" width="70" height="80" as="geometry" />
        </mxCell>
        <mxCell id="6vYfxs9B-7xquveqUcep-73" value="" style="html=1;verticalAlign=bottom;startArrow=oval;startFill=1;endArrow=block;startSize=8;curved=0;rounded=0;entryX=0.029;entryY=0.653;entryDx=0;entryDy=0;entryPerimeter=0;strokeColor=#FF0000;" edge="1" parent="1" source="6vYfxs9B-7xquveqUcep-17" target="6vYfxs9B-7xquveqUcep-72">
          <mxGeometry width="60" relative="1" as="geometry">
            <mxPoint x="610" y="240" as="sourcePoint" />
            <mxPoint x="670" y="240" as="targetPoint" />
          </mxGeometry>
        </mxCell>
        <mxCell id="6vYfxs9B-7xquveqUcep-93" value="4.β.1" style="edgeLabel;html=1;align=center;verticalAlign=middle;resizable=0;points=[];" vertex="1" connectable="0" parent="6vYfxs9B-7xquveqUcep-73">
          <mxGeometry x="-0.1586" y="5" relative="1" as="geometry">
            <mxPoint x="1" as="offset" />
          </mxGeometry>
        </mxCell>
        <mxCell id="6vYfxs9B-7xquveqUcep-74" value="" style="html=1;verticalAlign=bottom;startArrow=oval;startFill=1;endArrow=block;startSize=8;curved=0;rounded=0;entryX=0.32;entryY=0.966;entryDx=0;entryDy=0;entryPerimeter=0;strokeColor=#FF0000;" edge="1" parent="1" target="6vYfxs9B-7xquveqUcep-35">
          <mxGeometry width="60" relative="1" as="geometry">
            <mxPoint x="720" y="170" as="sourcePoint" />
            <mxPoint x="670" y="160" as="targetPoint" />
          </mxGeometry>
        </mxCell>
        <mxCell id="6vYfxs9B-7xquveqUcep-94" value="4.β.2" style="edgeLabel;html=1;align=center;verticalAlign=middle;resizable=0;points=[];" vertex="1" connectable="0" parent="6vYfxs9B-7xquveqUcep-74">
          <mxGeometry x="-0.1" y="-2" relative="1" as="geometry">
            <mxPoint as="offset" />
          </mxGeometry>
        </mxCell>
        <mxCell id="6vYfxs9B-7xquveqUcep-75" value="Εμφάνισε" style="ellipse;shape=umlControl;whiteSpace=wrap;html=1;" vertex="1" parent="1">
          <mxGeometry x="309" y="370" width="70" height="80" as="geometry" />
        </mxCell>
        <mxCell id="6vYfxs9B-7xquveqUcep-76" value="Κατάλληλο Μύνημα Σφάλματος" style="shape=umlBoundary;whiteSpace=wrap;html=1;" vertex="1" parent="1">
          <mxGeometry x="440" y="370" width="100" height="80" as="geometry" />
        </mxCell>
        <mxCell id="6vYfxs9B-7xquveqUcep-77" value="" style="html=1;verticalAlign=bottom;startArrow=oval;startFill=1;endArrow=block;startSize=8;curved=0;rounded=0;exitX=0;exitY=0.75;exitDx=0;exitDy=0;exitPerimeter=0;entryX=0.771;entryY=0.203;entryDx=0;entryDy=0;entryPerimeter=0;strokeColor=#FF0000;" edge="1" parent="1" source="6vYfxs9B-7xquveqUcep-14" target="6vYfxs9B-7xquveqUcep-75">
          <mxGeometry width="60" relative="1" as="geometry">
            <mxPoint x="380" y="360" as="sourcePoint" />
            <mxPoint x="440" y="360" as="targetPoint" />
          </mxGeometry>
        </mxCell>
        <mxCell id="6vYfxs9B-7xquveqUcep-82" value="4.α.1" style="edgeLabel;html=1;align=center;verticalAlign=middle;resizable=0;points=[];" vertex="1" connectable="0" parent="6vYfxs9B-7xquveqUcep-77">
          <mxGeometry x="-0.1013" y="3" relative="1" as="geometry">
            <mxPoint as="offset" />
          </mxGeometry>
        </mxCell>
        <mxCell id="6vYfxs9B-7xquveqUcep-79" value="" style="html=1;verticalAlign=bottom;startArrow=oval;startFill=1;endArrow=block;startSize=8;curved=0;rounded=0;exitX=1;exitY=0.528;exitDx=0;exitDy=0;exitPerimeter=0;entryX=0.01;entryY=0.528;entryDx=0;entryDy=0;entryPerimeter=0;strokeColor=#FF0000;" edge="1" parent="1" source="6vYfxs9B-7xquveqUcep-75" target="6vYfxs9B-7xquveqUcep-76">
          <mxGeometry width="60" relative="1" as="geometry">
            <mxPoint x="440" y="330" as="sourcePoint" />
            <mxPoint x="373" y="386" as="targetPoint" />
          </mxGeometry>
        </mxCell>
        <mxCell id="6vYfxs9B-7xquveqUcep-83" value="4.α.2" style="edgeLabel;html=1;align=center;verticalAlign=middle;resizable=0;points=[];" vertex="1" connectable="0" parent="6vYfxs9B-7xquveqUcep-79">
          <mxGeometry x="-0.2258" y="-2" relative="1" as="geometry">
            <mxPoint as="offset" />
          </mxGeometry>
        </mxCell>
        <mxCell id="6vYfxs9B-7xquveqUcep-80" value="" style="html=1;verticalAlign=bottom;startArrow=oval;startFill=1;endArrow=block;startSize=8;curved=0;rounded=0;exitX=0.28;exitY=0.853;exitDx=0;exitDy=0;exitPerimeter=0;entryX=0.9;entryY=0.353;entryDx=0;entryDy=0;entryPerimeter=0;strokeColor=#FF0000;" edge="1" parent="1" source="6vYfxs9B-7xquveqUcep-76" target="6vYfxs9B-7xquveqUcep-45">
          <mxGeometry width="60" relative="1" as="geometry">
            <mxPoint x="440" y="330" as="sourcePoint" />
            <mxPoint x="373" y="386" as="targetPoint" />
          </mxGeometry>
        </mxCell>
        <mxCell id="6vYfxs9B-7xquveqUcep-84" value="4.α.2" style="edgeLabel;html=1;align=center;verticalAlign=middle;resizable=0;points=[];" vertex="1" connectable="0" parent="6vYfxs9B-7xquveqUcep-80">
          <mxGeometry x="0.0615" y="-4" relative="1" as="geometry">
            <mxPoint as="offset" />
          </mxGeometry>
        </mxCell>
        <mxCell id="6vYfxs9B-7xquveqUcep-81" value="" style="html=1;verticalAlign=bottom;startArrow=oval;startFill=1;endArrow=block;startSize=8;curved=0;rounded=0;exitX=1.043;exitY=0.566;exitDx=0;exitDy=0;exitPerimeter=0;entryX=-0.03;entryY=0.566;entryDx=0;entryDy=0;entryPerimeter=0;strokeColor=#FF0000;" edge="1" parent="1" source="6vYfxs9B-7xquveqUcep-45" target="6vYfxs9B-7xquveqUcep-46">
          <mxGeometry width="60" relative="1" as="geometry">
            <mxPoint x="389" y="412" as="sourcePoint" />
            <mxPoint x="451" y="412" as="targetPoint" />
          </mxGeometry>
        </mxCell>
        <mxCell id="6vYfxs9B-7xquveqUcep-85" value="4.α.2" style="edgeLabel;html=1;align=center;verticalAlign=middle;resizable=0;points=[];" vertex="1" connectable="0" parent="6vYfxs9B-7xquveqUcep-81">
          <mxGeometry x="-0.137" y="2" relative="1" as="geometry">
            <mxPoint as="offset" />
          </mxGeometry>
        </mxCell>
        <mxCell id="6vYfxs9B-7xquveqUcep-89" value="Εμφάνισε" style="ellipse;shape=umlControl;whiteSpace=wrap;html=1;" vertex="1" parent="1">
          <mxGeometry x="175" y="370" width="70" height="80" as="geometry" />
        </mxCell>
        <mxCell id="6vYfxs9B-7xquveqUcep-90" value="" style="html=1;verticalAlign=bottom;startArrow=oval;startFill=1;endArrow=block;startSize=8;curved=0;rounded=0;exitX=0.614;exitY=1.003;exitDx=0;exitDy=0;exitPerimeter=0;strokeColor=#FF0000;entryX=0.58;entryY=-0.022;entryDx=0;entryDy=0;entryPerimeter=0;" edge="1" parent="1" source="6vYfxs9B-7xquveqUcep-89" target="6vYfxs9B-7xquveqUcep-66">
          <mxGeometry width="60" relative="1" as="geometry">
            <mxPoint x="331" y="334" as="sourcePoint" />
            <mxPoint x="240" y="450" as="targetPoint" />
          </mxGeometry>
        </mxCell>
        <mxCell id="6vYfxs9B-7xquveqUcep-91" value="2.α.2" style="edgeLabel;html=1;align=center;verticalAlign=middle;resizable=0;points=[];" vertex="1" connectable="0" parent="6vYfxs9B-7xquveqUcep-90">
          <mxGeometry x="0.2169" y="3" relative="1" as="geometry">
            <mxPoint y="-5" as="offset" />
          </mxGeometry>
        </mxCell>
        <mxCell id="6vYfxs9B-7xquveqUcep-97" value="Μεταβίβασε" style="ellipse;shape=umlControl;whiteSpace=wrap;html=1;" vertex="1" parent="1">
          <mxGeometry x="757.0000000000002" y="370" width="70" height="80" as="geometry" />
        </mxCell>
        <mxCell id="6vYfxs9B-7xquveqUcep-98" value="" style="html=1;verticalAlign=bottom;startArrow=oval;startFill=1;endArrow=block;startSize=8;curved=0;rounded=0;strokeColor=#FF0000;exitX=0.631;exitY=1.036;exitDx=0;exitDy=0;exitPerimeter=0;" edge="1" parent="1" source="6vYfxs9B-7xquveqUcep-35">
          <mxGeometry width="60" relative="1" as="geometry">
            <mxPoint x="730" y="180" as="sourcePoint" />
            <mxPoint x="792" y="370" as="targetPoint" />
          </mxGeometry>
        </mxCell>
        <mxCell id="6vYfxs9B-7xquveqUcep-99" value="4.β.2" style="edgeLabel;html=1;align=center;verticalAlign=middle;resizable=0;points=[];" vertex="1" connectable="0" parent="6vYfxs9B-7xquveqUcep-98">
          <mxGeometry x="-0.1" y="-2" relative="1" as="geometry">
            <mxPoint as="offset" />
          </mxGeometry>
        </mxCell>
        <mxCell id="6vYfxs9B-7xquveqUcep-100" value="" style="html=1;verticalAlign=bottom;startArrow=oval;startFill=1;endArrow=block;startSize=8;curved=0;rounded=0;strokeColor=#FF0000;exitX=0.493;exitY=1.036;exitDx=0;exitDy=0;exitPerimeter=0;entryX=0.636;entryY=-0.026;entryDx=0;entryDy=0;entryPerimeter=0;" edge="1" parent="1" source="6vYfxs9B-7xquveqUcep-97" target="6vYfxs9B-7xquveqUcep-40">
          <mxGeometry width="60" relative="1" as="geometry">
            <mxPoint x="800" y="143" as="sourcePoint" />
            <mxPoint x="802" y="380" as="targetPoint" />
          </mxGeometry>
        </mxCell>
        <mxCell id="6vYfxs9B-7xquveqUcep-101" value="4.β.2" style="edgeLabel;html=1;align=center;verticalAlign=middle;resizable=0;points=[];" vertex="1" connectable="0" parent="6vYfxs9B-7xquveqUcep-100">
          <mxGeometry x="-0.1" y="-2" relative="1" as="geometry">
            <mxPoint as="offset" />
          </mxGeometry>
        </mxCell>
      </root>
    </mxGraphModel>
  </diagram>
</mxfile>
